<?xml version="1.0" encoding="utf-8"?>
<!-- Generator: Adobe Illustrator 17.1.0, SVG Export Plug-In . SVG Version: 6.00 Build 0)  -->
<!DOCTYPE svg PUBLIC "-//W3C//DTD SVG 1.1//EN" "http://www.w3.org/Graphics/SVG/1.1/DTD/svg11.dtd">
<svg version="1.1" id="Layer_1" xmlns="http://www.w3.org/2000/svg" xmlns:xlink="http://www.w3.org/1999/xlink" x="0px" y="0px"
	 viewBox="0 0 100 62" enable-background="new 0 0 100 62" xml:space="preserve">
<path fill="none" stroke="#000000" stroke-miterlimit="10" d="M7.8,22c2.1-0.5,4.1-1.1,6.2-1.7c0.5-0.1,1.1-0.3,1.4-0.7
	c0.3-0.3,0.4-0.8,0.5-1.3c1-4.4,1.3-9,1.1-13.5c-0.9-0.1-1.4,0.9-1.6,1.8c-1.4,7.3,2.1,14.4,4.6,21.4c2.3,6.6,3.8,13.5,4.3,20.5
	c0.1,0.8,0.1,1.7-0.4,2.4c-0.4,0.6-1.1,0.9-1.8,1.2c-1.2,0.4-2.5,0.7-3.6,0.2c-1.1-0.5-1.7-2.2-0.8-3c3.4,0.1,6.7,0.2,10.1,0.3
	c1.6,0.1,3.4,0,4.3-1.3c0.5-0.7,0.5-1.5,0.6-2.3c0.2-3.2,0.3-6.4,0.3-9.7c-0.4,2.7,0,5.6,1,8.1c0.4,1.1,1,2.1,1.9,2.8
	c0.9,0.7,2.2,1,3.2,0.5c-0.2-3.9-0.3-7.8-0.5-11.7c0.4,4,0.8,8.1,1.2,12.1c0-3.1,0.1-6.2,0.1-9.2c0-1.2,0.2-2.6,1.2-3.1
	c1.1-0.5,2.3,0.4,3.1,1.3c2.4,2.8,3.8,6.3,4.1,9.9c1,0.6,2.3-0.2,2.8-1.3c0.4-1.1,0.3-2.3,0.4-3.5c0.4-3.2,3.2-6,6.5-6.2
	c-1.4-0.7-3,1-3.2,2.5s0.2,3.3-0.4,4.8c1.2,0.1,2.3,0.2,3.5,0.3c1,0.1,2.2,0.1,2.9-0.6c0.5-0.5,0.7-1.3,0.7-2.1
	c0.2-1.6,0.2-3.1,0-4.7c0-0.6-0.1-1.2-0.4-1.7c-0.7-1-2.2-1.2-3.3-0.6c-1,0.6-1.6,1.9-1.6,3.2c0,0.3,0,0.6,0.3,0.8
	c0.3,0.2,0.7,0.2,1.1,0.1c6.1-1.4,11-6.9,11.7-13.1c4.3,1.1,7.9,4.3,10.3,8c1.3,2,2.4,4.2,2.9,6.6c0.4,1.9,0.4,3.8,0.4,5.7
	c0,1.2,0,2.4-0.6,3.4c-0.8,1.4-2.5,2-4.1,2c-1.6,0-3.1-0.6-4.6-1.2c0-2.2,1.4-4.1,3-5.6c1.6-1.5,3.5-2.6,5-4.2
	c4.1-4.4,4.6-11.6,9.2-15.4"/>
</svg>
